HIERARCHY
ROOT mixamorig:Hips
{
	OFFSET -0.000008 104.274872 1.554316
	CHANNELS 6 Xposition Yposition Zposition Xrotation Yrotation Zrotation
	JOINT mixamorig:Spine
	{
		OFFSET -0.000005 10.181595 0.131519
		CHANNELS 6 Xposition Yposition Zposition Xrotation Yrotation Zrotation
		JOINT mixamorig:Spine1
		{
			OFFSET -0.000000 9.893959 -1.470707
			CHANNELS 6 Xposition Yposition Zposition Xrotation Yrotation Zrotation
			JOINT mixamorig:Spine2
			{
				OFFSET -0.000000 9.220757 -1.370641
				CHANNELS 6 Xposition Yposition Zposition Xrotation Yrotation Zrotation
				JOINT mixamorig:Neck
				{
					OFFSET 0.000001 16.740417 -2.049036
					CHANNELS 6 Xposition Yposition Zposition Xrotation Yrotation Zrotation
					JOINT mixamorig:Head
					{
						OFFSET 0.000000 9.617874 1.685006
						CHANNELS 6 Xposition Yposition Zposition Xrotation Yrotation Zrotation
						JOINT mixamorig:HeadTop_End
						{
							OFFSET 0.000002 22.037354 7.501101
							CHANNELS 6 Xposition Yposition Zposition Xrotation Yrotation Zrotation
							End Site
							{
								OFFSET 0.000168 2310.654297 -282.823242
							}
						}
					}
				}
				JOINT mixamorig:RightShoulder
				{
					OFFSET -4.569970 11.014908 -2.160885
					CHANNELS 6 Xposition Yposition Zposition Xrotation Yrotation Zrotation
					JOINT mixamorig:RightArm
					{
						OFFSET -10.592851 -0.524811 -2.232101
						CHANNELS 6 Xposition Yposition Zposition Xrotation Yrotation Zrotation
						JOINT mixamorig:RightForeArm
						{
							OFFSET -27.841511 0.000031 -0.000004
							CHANNELS 6 Xposition Yposition Zposition Xrotation Yrotation Zrotation
							JOINT mixamorig:RightHand
							{
								OFFSET -28.328831 -0.000015 0.000015
								CHANNELS 6 Xposition Yposition Zposition Xrotation Yrotation Zrotation
								JOINT mixamorig:RightHandThumb1
								{
									OFFSET -2.464806 -1.573990 2.681852
									CHANNELS 6 Xposition Yposition Zposition Xrotation Yrotation Zrotation
									JOINT mixamorig:RightHandThumb2
									{
										OFFSET -3.215179 -1.872803 1.924282
										CHANNELS 6 Xposition Yposition Zposition Xrotation Yrotation Zrotation
										JOINT mixamorig:RightHandThumb3
										{
											OFFSET -2.654831 -1.527969 1.512609
											CHANNELS 6 Xposition Yposition Zposition Xrotation Yrotation Zrotation
											JOINT mixamorig:RightHandThumb4
											{
												OFFSET -2.018814 -1.152008 1.108052
												CHANNELS 6 Xposition Yposition Zposition Xrotation Yrotation Zrotation
												End Site
												{
													OFFSET -188.809540 -114.533607 132.431396
												}
											}
										}
									}
								}
								JOINT mixamorig:RightHandIndex1
								{
									OFFSET -9.108284 -0.517868 2.259835
									CHANNELS 6 Xposition Yposition Zposition Xrotation Yrotation Zrotation
									JOINT mixamorig:RightHandIndex2
									{
										OFFSET -3.699989 0.000000 0.001215
										CHANNELS 6 Xposition Yposition Zposition Xrotation Yrotation Zrotation
										JOINT mixamorig:RightHandIndex3
										{
											OFFSET -2.850006 0.000031 -0.000522
											CHANNELS 6 Xposition Yposition Zposition Xrotation Yrotation Zrotation
											JOINT mixamorig:RightHandIndex4
											{
												OFFSET -2.772186 -0.000015 -0.000020
												CHANNELS 6 Xposition Yposition Zposition Xrotation Yrotation Zrotation
												End Site
												{
													OFFSET -277.218445 0.000000 -0.050231
												}
											}
										}
									}
								}
								JOINT mixamorig:RightHandMiddle1
								{
									OFFSET -9.532516 -0.000031 -0.000023
									CHANNELS 6 Xposition Yposition Zposition Xrotation Yrotation Zrotation
									JOINT mixamorig:RightHandMiddle2
									{
										OFFSET -3.700005 -0.000015 0.003713
										CHANNELS 6 Xposition Yposition Zposition Xrotation Yrotation Zrotation
										JOINT mixamorig:RightHandMiddle3
										{
											OFFSET -2.949974 0.000015 -0.002054
											CHANNELS 6 Xposition Yposition Zposition Xrotation Yrotation Zrotation
											JOINT mixamorig:RightHandMiddle4
											{
												OFFSET -2.946640 0.000000 -0.000156
												CHANNELS 6 Xposition Yposition Zposition Xrotation Yrotation Zrotation
												End Site
												{
													OFFSET -294.664337 0.000000 -0.113670
												}
											}
										}
									}
								}
								JOINT mixamorig:RightHandRing1
								{
									OFFSET -9.103600 -0.043076 -1.865134
									CHANNELS 6 Xposition Yposition Zposition Xrotation Yrotation Zrotation
									JOINT mixamorig:RightHandRing2
									{
										OFFSET -3.379288 0.000000 -0.001055
										CHANNELS 6 Xposition Yposition Zposition Xrotation Yrotation Zrotation
										JOINT mixamorig:RightHandRing3
										{
											OFFSET -2.889687 -0.000015 0.000379
											CHANNELS 6 Xposition Yposition Zposition Xrotation Yrotation Zrotation
											JOINT mixamorig:RightHandRing4
											{
												OFFSET -2.638809 -0.000015 0.000941
												CHANNELS 6 Xposition Yposition Zposition Xrotation Yrotation Zrotation
												End Site
												{
													OFFSET -263.880371 0.000000 0.516020
												}
											}
										}
									}
								}
								JOINT mixamorig:RightHandPinky1
								{
									OFFSET -8.076683 -0.486710 -3.806280
									CHANNELS 6 Xposition Yposition Zposition Xrotation Yrotation Zrotation
									JOINT mixamorig:RightHandPinky2
									{
										OFFSET -3.600014 -0.000015 -0.003747
										CHANNELS 6 Xposition Yposition Zposition Xrotation Yrotation Zrotation
										JOINT mixamorig:RightHandPinky3
										{
											OFFSET -2.099983 0.000000 -0.005739
											CHANNELS 6 Xposition Yposition Zposition Xrotation Yrotation Zrotation
											JOINT mixamorig:RightHandPinky4
											{
												OFFSET -2.115768 -0.000031 -0.003680
												CHANNELS 6 Xposition Yposition Zposition Xrotation Yrotation Zrotation
												End Site
												{
													OFFSET -211.577087 0.000000 -0.350686
												}
											}
										}
									}
								}
							}
						}
					}
				}
				JOINT mixamorig:LeftShoulder
				{
					OFFSET 4.570447 11.014725 -2.160855
					CHANNELS 6 Xposition Yposition Zposition Xrotation Yrotation Zrotation
					JOINT mixamorig:LeftArm
					{
						OFFSET 10.592371 -0.524597 -2.232119
						CHANNELS 6 Xposition Yposition Zposition Xrotation Yrotation Zrotation
						JOINT mixamorig:LeftForeArm
						{
							OFFSET 27.841532 -0.000031 0.000026
							CHANNELS 6 Xposition Yposition Zposition Xrotation Yrotation Zrotation
							JOINT mixamorig:LeftHand
							{
								OFFSET 28.328846 -0.000061 0.000022
								CHANNELS 6 Xposition Yposition Zposition Xrotation Yrotation Zrotation
								JOINT mixamorig:LeftHandThumb1
								{
									OFFSET 2.466141 -1.576172 2.681732
									CHANNELS 6 Xposition Yposition Zposition Xrotation Yrotation Zrotation
									JOINT mixamorig:LeftHandThumb2
									{
										OFFSET 3.217812 -1.872070 1.916482
										CHANNELS 6 Xposition Yposition Zposition Xrotation Yrotation Zrotation
										JOINT mixamorig:LeftHandThumb3
										{
											OFFSET 2.656029 -1.528778 1.514513
											CHANNELS 6 Xposition Yposition Zposition Xrotation Yrotation Zrotation
											JOINT mixamorig:LeftHandThumb4
											{
												OFFSET 2.020889 -1.154053 1.115139
												CHANNELS 6 Xposition Yposition Zposition Xrotation Yrotation Zrotation
												End Site
												{
													OFFSET 190.885437 -115.081749 130.048782
												}
											}
										}
									}
								}
								JOINT mixamorig:LeftHandIndex1
								{
									OFFSET 9.109314 -0.518021 2.259871
									CHANNELS 6 Xposition Yposition Zposition Xrotation Yrotation Zrotation
									JOINT mixamorig:LeftHandIndex2
									{
										OFFSET 3.699989 0.000000 -0.000322
										CHANNELS 6 Xposition Yposition Zposition Xrotation Yrotation Zrotation
										JOINT mixamorig:LeftHandIndex3
										{
											OFFSET 2.850006 0.000000 0.000352
											CHANNELS 6 Xposition Yposition Zposition Xrotation Yrotation Zrotation
											JOINT mixamorig:LeftHandIndex4
											{
												OFFSET 2.774864 -0.000031 -0.000027
												CHANNELS 6 Xposition Yposition Zposition Xrotation Yrotation Zrotation
												End Site
												{
													OFFSET 277.486267 0.000000 -0.009857
												}
											}
										}
									}
								}
								JOINT mixamorig:LeftHandMiddle1
								{
									OFFSET 9.533394 0.000061 0.000044
									CHANNELS 6 Xposition Yposition Zposition Xrotation Yrotation Zrotation
									JOINT mixamorig:LeftHandMiddle2
									{
										OFFSET 3.699989 -0.000015 -0.000231
										CHANNELS 6 Xposition Yposition Zposition Xrotation Yrotation Zrotation
										JOINT mixamorig:LeftHandMiddle3
										{
											OFFSET 2.949997 -0.000015 -0.000059
											CHANNELS 6 Xposition Yposition Zposition Xrotation Yrotation Zrotation
											JOINT mixamorig:LeftHandMiddle4
											{
												OFFSET 2.952896 0.000031 0.000063
												CHANNELS 6 Xposition Yposition Zposition Xrotation Yrotation Zrotation
												End Site
												{
													OFFSET 295.289337 0.000000 0.022810
												}
											}
										}
									}
								}
								JOINT mixamorig:LeftHandRing1
								{
									OFFSET 9.104523 -0.042999 -1.865074
									CHANNELS 6 Xposition Yposition Zposition Xrotation Yrotation Zrotation
									JOINT mixamorig:LeftHandRing2
									{
										OFFSET 3.150009 -0.000031 0.000043
										CHANNELS 6 Xposition Yposition Zposition Xrotation Yrotation Zrotation
										JOINT mixamorig:LeftHandRing3
										{
											OFFSET 2.949982 -0.000015 0.000040
											CHANNELS 6 Xposition Yposition Zposition Xrotation Yrotation Zrotation
											JOINT mixamorig:LeftHandRing4
											{
												OFFSET 2.644348 0.000000 0.000057
												CHANNELS 6 Xposition Yposition Zposition Xrotation Yrotation Zrotation
												End Site
												{
													OFFSET 264.434631 0.000000 0.012105
												}
											}
										}
									}
								}
								JOINT mixamorig:LeftHandPinky1
								{
									OFFSET 8.077789 -0.486847 -3.806259
									CHANNELS 6 Xposition Yposition Zposition Xrotation Yrotation Zrotation
									JOINT mixamorig:LeftHandPinky2
									{
										OFFSET 3.599953 0.000031 0.014727
										CHANNELS 6 Xposition Yposition Zposition Xrotation Yrotation Zrotation
										JOINT mixamorig:LeftHandPinky3
										{
											OFFSET 2.100021 0.000015 0.007705
											CHANNELS 6 Xposition Yposition Zposition Xrotation Yrotation Zrotation
											JOINT mixamorig:LeftHandPinky4
											{
												OFFSET 2.125504 0.000031 0.007517
												CHANNELS 6 Xposition Yposition Zposition Xrotation Yrotation Zrotation
												End Site
												{
													OFFSET 212.550781 0.000000 0.625752
												}
											}
										}
									}
								}
							}
						}
					}
				}
			}
		}
	}
	JOINT mixamorig:RightUpLeg
	{
		OFFSET -8.207787 -6.751648 -1.599560
		CHANNELS 6 Xposition Yposition Zposition Xrotation Yrotation Zrotation
		JOINT mixamorig:RightLeg
		{
			OFFSET -0.000002 -44.370117 0.345942
			CHANNELS 6 Xposition Yposition Zposition Xrotation Yrotation Zrotation
			JOINT mixamorig:RightFoot
			{
				OFFSET 0.000003 -44.423679 -3.043532
				CHANNELS 6 Xposition Yposition Zposition Xrotation Yrotation Zrotation
				JOINT mixamorig:RightToeBase
				{
					OFFSET -0.000002 -8.728671 10.710558
					CHANNELS 6 Xposition Yposition Zposition Xrotation Yrotation Zrotation
					JOINT mixamorig:RightToe_End
					{
						OFFSET -0.000001 -0.000679 9.278119
						CHANNELS 6 Xposition Yposition Zposition Xrotation Yrotation Zrotation
						End Site
						{
							OFFSET 0.000000 -0.067690 927.812134
						}
					}
				}
			}
		}
	}
	JOINT mixamorig:LeftUpLeg
	{
		OFFSET 8.207793 -6.751686 -1.599556
		CHANNELS 6 Xposition Yposition Zposition Xrotation Yrotation Zrotation
		JOINT mixamorig:LeftLeg
		{
			OFFSET -0.000004 -44.370014 0.346954
			CHANNELS 6 Xposition Yposition Zposition Xrotation Yrotation Zrotation
			JOINT mixamorig:LeftFoot
			{
				OFFSET -0.000001 -44.423672 -3.044401
				CHANNELS 6 Xposition Yposition Zposition Xrotation Yrotation Zrotation
				JOINT mixamorig:LeftToeBase
				{
					OFFSET -0.000002 -8.728669 10.710558
					CHANNELS 6 Xposition Yposition Zposition Xrotation Yrotation Zrotation
					JOINT mixamorig:LeftToe_End
					{
						OFFSET -0.000003 -0.000679 9.278133
						CHANNELS 6 Xposition Yposition Zposition Xrotation Yrotation Zrotation
						End Site
						{
							OFFSET 0.000000 -0.068021 927.813477
						}
					}
				}
			}
		}
	}
}
MOTION
Frames: 3
Frame Time: 0.033333
0.000006 104.270477 1.554256 0.000010 0.000003 -0.000113 -0.000005 10.181587 0.131522 0.000001 -0.000003 0.000084 -0.000000 9.893967 -1.470711 0.000001 0.000000 -0.000000 -0.000000 9.220802 -1.370642 0.000000 -0.000000 -0.000000 0.000001 16.740433 -2.049030 0.000000 -0.000000 -0.000000 0.000000 9.617859 1.685014 0.000000 0.000000 0.000000 0.000002 22.037384 7.501101 0.000000 -0.000000 0.000000 -4.569968 11.014880 -2.160881 0.000008 0.000001 -0.000038 -10.592876 -0.524765 -2.231907 76.552214 30.216771 -24.052231 -27.841511 -0.000006 0.000557 -47.330636 107.848516 62.055622 -28.328812 0.000019 0.000030 -0.000320 -0.000042 0.000006 -2.464445 -1.573744 2.682325 -49.936654 -170.133141 -15.566496 -3.215268 -1.872588 1.924666 155.490431 31.096810 0.142391 -2.654947 -1.527894 1.513078 146.719580 26.917069 -37.797720 -2.018831 -1.152015 1.108055 -0.000005 0.000001 0.000004 -9.108392 -0.517566 2.260121 99.645404 16.629207 -19.693869 -3.700052 0.000327 0.001508 96.997183 12.183095 -13.729276 -2.850081 0.000375 -0.000254 97.621831 9.459965 -10.801657 -2.772179 -0.000016 -0.000019 -0.000000 -0.000002 0.000000 -9.532576 0.000262 0.000218 87.805237 15.936718 -15.482015 -3.700053 0.000338 0.003941 88.253912 10.437598 -10.035801 -2.950051 0.000336 -0.001866 88.444475 9.828885 -9.560068 -2.946622 -0.000010 -0.000154 -0.000004 0.000000 -0.000001 -9.103712 -0.042757 -1.864899 84.148716 18.057497 -16.285551 -3.379338 0.000294 -0.000827 88.135702 10.129647 -9.823802 -2.889754 0.000344 0.000605 90.638338 6.761865 -6.883379 -2.638804 -0.000001 0.000942 -0.000001 0.000001 0.000001 -8.076737 -0.486408 -3.806091 70.436490 17.498677 -12.291078 -3.600034 0.000257 -0.003580 73.705616 9.231125 -6.654344 -2.100008 0.000305 -0.005553 75.703208 5.581061 -4.167512 -2.115763 -0.000043 -0.003678 0.000002 0.000005 -0.000003 4.570446 11.014691 -2.160851 -0.000018 0.000010 -0.000021 10.592398 -0.524473 -2.232347 74.864262 -11.248618 8.621777 27.841824 0.000081 -0.000218 97.729017 -70.934670 78.405442 28.328831 -0.000029 0.000021 0.000021 -0.000089 0.000000 2.466000 -1.576153 2.681911 -37.318275 161.162835 -15.006397 3.217838 -1.871765 1.916390 158.248284 -28.219985 16.243325 2.656086 -1.528662 1.514470 134.157415 -29.401844 50.021782 2.020905 -1.154082 1.115145 0.000004 -0.000000 0.000006 9.109370 -0.517879 2.259715 78.388988 -14.688141 11.988934 3.700030 0.000149 -0.000466 77.616029 -13.534111 10.916498 2.850060 0.000157 0.000205 75.872999 -11.765165 9.182605 2.774859 -0.000034 -0.000027 0.000000 0.000003 0.000002 9.533458 0.000192 -0.000091 79.143717 -13.151153 10.876666 3.700058 0.000155 -0.000390 82.151746 -12.576329 10.969922 2.950061 0.000147 -0.000195 81.870377 -16.010544 13.911008 2.952879 -0.000015 0.000062 0.000000 0.000000 0.000001 9.104576 -0.042863 -1.865245 76.832504 -12.172467 9.668380 3.150050 0.000211 -0.000099 83.980885 -12.014719 10.823628 2.950036 0.000161 -0.000086 86.368890 -14.344383 13.473013 2.644331 0.000032 0.000052 -0.000002 -0.000000 0.000001 8.077834 -0.486748 -3.806421 67.593902 -14.185289 9.914493 3.600005 0.000156 0.014557 68.769165 -12.459693 8.895838 2.100047 0.000157 0.007557 73.742793 -12.641026 9.866539 2.125510 -0.000013 0.007517 -0.000002 0.000002 0.000000 -8.207786 -6.751667 -1.599560 -0.077001 -0.000003 0.000080 -0.000002 -44.370110 0.345938 0.153719 -0.000000 -0.000000 0.000000 -44.423679 -3.043532 -0.076700 0.000000 -0.000002 -0.000006 -8.728667 10.710559 -0.000009 -0.000000 -0.000000 -0.000001 -0.000679 9.278123 0.000000 -0.000000 -0.000000 8.207792 -6.751710 -1.599556 -0.074518 -0.000003 0.000081 -0.000002 -44.370014 0.346960 0.148822 0.000002 0.000000 -0.000001 -44.423664 -3.044403 -0.074314 0.000000 -0.000002 -0.000004 -8.728671 10.710558 0.000007 -0.000000 -0.000000 0.000000 -0.000680 9.278137 -0.000000 0.000000 -0.000001 
0.000006 104.270477 1.554256 0.000010 0.000003 -0.000113 -0.000005 10.181587 0.131522 0.000001 -0.000003 0.000084 -0.000000 9.893967 -1.470711 0.000001 0.000000 -0.000000 -0.000000 9.220802 -1.370642 0.000000 -0.000000 -0.000000 0.000001 16.740433 -2.049030 0.000000 -0.000000 -0.000000 0.000000 9.617859 1.685014 0.000000 0.000000 0.000000 0.000002 22.037384 7.501101 0.000000 -0.000000 0.000000 -4.569968 11.014880 -2.160881 0.000008 0.000001 -0.000038 -10.592867 -0.524791 -2.231865 76.380892 36.091570 -28.750312 -27.841528 0.000001 0.000559 -46.577833 105.775451 59.270059 -28.328808 0.000021 0.000027 -0.000324 -0.000045 0.000008 -2.464426 -1.573746 2.682329 -49.263641 -168.234294 -13.539525 -3.215272 -1.872584 1.924644 152.591617 32.396509 10.882957 -2.654960 -1.527882 1.513060 147.185208 27.416096 -31.612171 -2.018834 -1.151995 1.108073 -0.000002 -0.000001 0.000002 -9.108371 -0.517556 2.260127 98.714170 15.139007 -17.653425 -3.700075 0.000322 0.001503 95.608640 12.191590 -13.410971 -2.850073 0.000374 -0.000269 94.123476 10.278219 -11.040311 -2.772175 -0.000012 -0.000022 -0.000000 -0.000002 -0.000001 -9.532599 0.000273 0.000208 87.600134 15.058084 -14.582300 -3.700069 0.000340 0.003940 88.630645 10.808487 -10.463556 -2.950066 0.000322 -0.001838 89.711454 11.170870 -11.108080 -2.946650 0.000000 -0.000158 0.000003 0.000001 0.000001 -9.103696 -0.042756 -1.864905 83.259931 18.008777 -15.993142 -3.379335 0.000322 -0.000833 87.046799 9.975324 -9.492874 -2.889768 0.000363 0.000620 91.964351 7.355677 -7.658924 -2.638808 0.000001 0.000943 0.000004 -0.000001 0.000003 -8.076753 -0.486402 -3.806109 71.345151 19.370461 -13.856003 -3.600048 0.000262 -0.003577 74.686131 10.175705 -7.493003 -2.100022 0.000303 -0.005568 77.491809 5.959364 -4.606292 -2.115776 -0.000042 -0.003681 -0.000001 -0.000001 -0.000006 4.570446 11.014691 -2.160851 -0.000018 0.000010 -0.000021 10.592400 -0.524480 -2.232360 73.920337 -12.209710 9.202570 27.841820 0.000070 -0.000210 98.778899 -74.122654 82.748486 28.328833 -0.000029 0.000024 0.000020 -0.000089 -0.000000 2.466270 -1.576032 2.681823 5.289982 171.695383 -102.462092 3.217899 -1.871889 1.916437 161.924415 -19.505620 51.574905 2.656106 -1.528689 1.514501 137.874390 -28.027854 60.384876 2.020895 -1.154055 1.115148 -0.000000 0.000001 0.000004 9.109377 -0.517880 2.259751 80.378622 -20.287576 17.178088 3.700029 0.000133 -0.000479 78.741330 -13.186671 10.849969 2.850043 0.000182 0.000214 77.339147 -9.990999 8.001858 2.774880 -0.000031 -0.000023 0.000000 0.000002 -0.000000 9.533459 0.000180 -0.000077 80.188716 -18.871859 15.922470 3.700022 0.000152 -0.000373 83.353409 -10.329116 9.198206 2.950047 0.000157 -0.000216 83.741671 -9.650933 8.656992 2.952874 -0.000030 0.000065 0.000000 0.000001 -0.000000 9.104595 -0.042871 -1.865217 79.814176 -18.370794 15.405449 3.150046 0.000186 -0.000107 84.338623 -11.822546 10.716966 2.950006 0.000177 -0.000095 84.816517 -9.477835 8.661786 2.644325 0.000031 0.000058 -0.000000 0.000001 -0.000000 8.077853 -0.486753 -3.806378 71.712915 -20.214278 15.131611 3.600008 0.000150 0.014576 70.357963 -16.688189 12.185050 2.100043 0.000151 0.007544 71.634416 -11.806740 8.886805 2.125495 0.000001 0.007513 0.000001 -0.000000 0.000000 -8.207786 -6.751667 -1.599560 -0.077001 -0.000003 0.000080 -0.000002 -44.370110 0.345938 0.153719 -0.000000 -0.000000 0.000000 -44.423679 -3.043532 -0.076700 0.000000 -0.000002 -0.000006 -8.728667 10.710559 -0.000009 -0.000000 -0.000000 -0.000001 -0.000679 9.278123 0.000000 -0.000000 -0.000000 8.207792 -6.751710 -1.599556 -0.074518 -0.000003 0.000081 -0.000002 -44.370014 0.346960 0.148822 0.000002 0.000000 -0.000001 -44.423664 -3.044403 -0.074314 0.000000 -0.000002 -0.000004 -8.728671 10.710558 0.000007 -0.000000 -0.000000 0.000000 -0.000680 9.278137 -0.000000 0.000000 -0.000001 
0.000006 104.270477 1.554256 0.000010 0.000003 -0.000113 -0.000005 10.181587 0.131522 0.000001 -0.000003 0.000084 -0.000000 9.893967 -1.470711 0.000001 0.000000 -0.000000 -0.000000 9.220802 -1.370642 0.000000 -0.000000 -0.000000 0.000001 16.740433 -2.049030 0.000000 -0.000000 -0.000000 0.000000 9.617859 1.685014 0.000000 0.000000 0.000000 0.000002 22.037384 7.501101 0.000000 -0.000000 0.000000 -4.569968 11.014880 -2.160881 0.000008 0.000001 -0.000038 -10.592860 -0.524792 -2.231851 76.336974 39.211426 -31.282581 -27.841515 0.000020 0.000538 -46.361767 104.447915 57.842652 -28.328819 0.000022 0.000029 -0.000320 -0.000044 0.000006 -2.464425 -1.573755 2.682325 -47.894250 -165.719951 -9.809390 -3.215259 -1.872552 1.924650 152.384758 32.749497 13.522041 -2.654949 -1.527865 1.513071 147.460301 27.307718 -32.292690 -2.018830 -1.151998 1.108065 -0.000003 -0.000000 0.000003 -9.108376 -0.517548 2.260107 98.462129 15.172408 -17.614809 -3.700068 0.000323 0.001506 95.661731 12.674912 -13.955439 -2.850081 0.000361 -0.000266 94.831747 10.908841 -11.862291 -2.772175 0.000002 -0.000017 0.000000 -0.000003 -0.000001 -9.532596 0.000275 0.000205 87.612032 14.927583 -14.459773 -3.700064 0.000331 0.003938 88.916844 10.744633 -10.453069 -2.950051 0.000337 -0.001819 90.884321 11.508841 -11.679428 -2.946622 0.000000 -0.000156 -0.000003 0.000000 0.000002 -9.103693 -0.042762 -1.864908 83.926018 17.852825 -16.038046 -3.379334 0.000306 -0.000837 87.110689 9.525267 -9.075127 -2.889738 0.000350 0.000631 91.931600 7.508857 -7.813040 -2.638819 -0.000018 0.000940 0.000001 0.000001 0.000001 -8.076756 -0.486403 -3.806080 72.158217 19.337939 -14.038697 -3.600059 0.000248 -0.003583 74.848539 10.160103 -7.503097 -2.100010 0.000303 -0.005551 77.038516 6.237641 -4.790091 -2.115757 -0.000025 -0.003683 -0.000001 0.000000 -0.000002 4.570446 11.014691 -2.160851 -0.000018 0.000010 -0.000021 10.592438 -0.524473 -2.232399 72.799824 -26.108203 19.401270 27.841820 0.000043 -0.000165 99.165386 -76.706549 85.794300 28.328836 -0.000028 0.000016 0.000023 -0.000090 0.000001 2.466229 -1.575907 2.681799 21.846749 189.267219 -138.669738 3.217886 -1.871941 1.916489 165.517258 -10.896401 72.706162 2.656101 -1.528685 1.514513 142.459865 -25.734208 66.889627 2.020914 -1.154068 1.115144 0.000001 -0.000002 -0.000001 9.109385 -0.517878 2.259753 86.122101 -23.060143 21.574262 3.700040 0.000161 -0.000462 84.270690 -15.549194 14.098622 2.850048 0.000187 0.000201 82.957654 -11.023903 9.751291 2.774889 -0.000030 -0.000027 0.000000 -0.000001 -0.000001 9.533455 0.000194 -0.000075 83.041249 -20.688976 18.352013 3.700045 0.000185 -0.000379 87.690483 -11.391308 10.941386 2.950062 0.000166 -0.000208 87.962345 -10.012728 9.667265 2.952866 -0.000030 0.000062 0.000002 0.000000 -0.000000 9.104577 -0.042866 -1.865211 82.073479 -19.751317 17.234777 3.150032 0.000196 -0.000095 87.375291 -13.024048 12.447119 2.950016 0.000178 -0.000097 87.416449 -10.071395 9.630979 2.644318 0.000017 0.000056 -0.000002 0.000001 -0.000000 8.077844 -0.486743 -3.806387 73.325305 -20.687449 15.937504 3.600008 0.000141 0.014557 72.950717 -17.259967 13.203333 2.100028 0.000154 0.007530 74.330893 -12.565962 9.914172 2.125505 0.000000 0.007519 -0.000000 -0.000001 -0.000001 -8.207786 -6.751667 -1.599560 -0.077001 -0.000003 0.000080 -0.000002 -44.370110 0.345938 0.153719 -0.000000 -0.000000 0.000000 -44.423679 -3.043532 -0.076700 0.000000 -0.000002 -0.000006 -8.728667 10.710559 -0.000009 -0.000000 -0.000000 -0.000001 -0.000679 9.278123 0.000000 -0.000000 -0.000000 8.207792 -6.751710 -1.599556 -0.074518 -0.000003 0.000081 -0.000002 -44.370014 0.346960 0.148822 0.000002 0.000000 -0.000001 -44.423664 -3.044403 -0.074314 0.000000 -0.000002 -0.000004 -8.728671 10.710558 0.000007 -0.000000 -0.000000 0.000000 -0.000680 9.278137 -0.000000 0.000000 -0.000001 
